<svg id="ethE06INvZX1" xmlns="http://www.w3.org/2000/svg" xmlns:xlink="http://www.w3.org/1999/xlink" viewBox="0 0 3072 1928" shape-rendering="geometricPrecision" text-rendering="geometricPrecision" project-id="19acebf11027460da98a7d9f90070bd9" export-id="2b3f7d11c8d54592901f5c0c0d424082" cached="false" style="background-color:transparent"><defs><radialGradient id="ethE06INvZX4-fill" cx="0" cy="0" r="0.488811" spreadMethod="pad" gradientUnits="objectBoundingBox" gradientTransform="matrix(0.999999 -0.001587 0.003366 2.1212 0.5 0.5)"><stop id="ethE06INvZX4-fill-0" offset="0%" stop-color="#f0f"/><stop id="ethE06INvZX4-fill-1" offset="76%" stop-color="#e54ba6"/></radialGradient><radialGradient id="ethE06INvZX8-fill" cx="0" cy="0" r="0.488811" spreadMethod="pad" gradientUnits="objectBoundingBox" gradientTransform="matrix(0.999999 -0.001587 0.003366 2.1212 0.5 0.5)"><stop id="ethE06INvZX8-fill-0" offset="0%" stop-color="#f0f"/><stop id="ethE06INvZX8-fill-1" offset="76%" stop-color="#e54ba6"/></radialGradient><radialGradient id="ethE06INvZX13-fill" cx="0" cy="0" r="0.457736" spreadMethod="pad" gradientUnits="objectBoundingBox" gradientTransform="matrix(1 0 0 2.69994 0.5 0.5)"><stop id="ethE06INvZX13-fill-0" offset="6%" stop-color="#f0f"/><stop id="ethE06INvZX13-fill-1" offset="100%" stop-color="#e5865e"/></radialGradient><radialGradient id="ethE06INvZX17-fill" cx="0" cy="0" r="0.457736" spreadMethod="pad" gradientUnits="objectBoundingBox" gradientTransform="matrix(1 0 0 2.69994 0.5 0.5)"><stop id="ethE06INvZX17-fill-0" offset="0%" stop-color="#e44aa5"/><stop id="ethE06INvZX17-fill-1" offset="100%" stop-color="#e5865e"/></radialGradient><radialGradient id="ethE06INvZX22-fill" cx="0" cy="0" r="0.471471" spreadMethod="pad" gradientUnits="objectBoundingBox" gradientTransform="matrix(1 0 0 1.70506 0.5 0.5)"><stop id="ethE06INvZX22-fill-0" offset="0%" stop-color="#e44aa5"/><stop id="ethE06INvZX22-fill-1" offset="100%" stop-color="#fc0"/></radialGradient><radialGradient id="ethE06INvZX26-fill" cx="0" cy="0" r="0.471471" spreadMethod="pad" gradientUnits="objectBoundingBox" gradientTransform="matrix(1 0 0 1.70506 0.5 0.5)"><stop id="ethE06INvZX26-fill-0" offset="0%" stop-color="#e5865e"/><stop id="ethE06INvZX26-fill-1" offset="100%" stop-color="#fc0"/></radialGradient><radialGradient id="ethE06INvZX31-fill" cx="0" cy="0" r="0.492293" spreadMethod="pad" gradientUnits="objectBoundingBox" gradientTransform="matrix(1 0 0 2.07265 0.5 0.5)"><stop id="ethE06INvZX31-fill-0" offset="0%" stop-color="#e5865e"/><stop id="ethE06INvZX31-fill-1" offset="100%" stop-color="#fc0"/></radialGradient><radialGradient id="ethE06INvZX35-fill" cx="0" cy="0" r="0.492293" spreadMethod="pad" gradientUnits="objectBoundingBox" gradientTransform="matrix(1 0 0 2.07265 0.5 0.5)"><stop id="ethE06INvZX35-fill-0" offset="0%" stop-color="#e44aa5"/><stop id="ethE06INvZX35-fill-1" offset="100%" stop-color="#fc0"/></radialGradient></defs><g><g transform="translate(0-40)" opacity="0.15"><path d="M0,0c274.461154-18.413907,379.953537-36.645254,554.66586,0c532.015676,111.588291,362.373291,418.042819,1019.563076,479.109564c290.680097,0,599.500202-232.745877,834.125496-320.127037C2630.158984,76.376177,2758.910855,25.020755,3072,0c0,251.657761,0,587.201442,0,838.859203-235.086122-17.667201-296.452402-130.072271-560.247996-56.972287-254.469822,106.969801-524.412927,467.74774-826.347643,455.0347-506.102833-21.309592-692.860717-359.686895-1102.856278-455.0347C365.190174,731.338565,169.374261,823.204298,0,838.859203C0,587.201442,0,251.657761,0,0Z" transform="translate(0 586.394)" opacity="0.3" fill="url(#ethE06INvZX4-fill)" stroke-width="5"/><path d="M3072,838.859203c-235.086122-17.667201-296.452402-130.072271-560.247996-56.972287-254.469822,106.969801-524.412927,467.74774-826.347643,455.0347-506.102833-21.309592-692.860717-359.686895-1102.856278-455.0347C365.190174,731.338565,169.374261,823.204298,0,838.859203" transform="translate(0 586.394)" opacity="0.3" fill="none" fill-opacity="0.6" stroke="#f0f" stroke-width="5"/><path d="M0,0c274.461154-18.413907,379.953537-36.645254,554.66586,0c532.015676,111.588291,362.373291,418.042819,1019.563076,479.109564c290.680097,0,599.500202-232.745877,834.125496-320.127037C2630.158984,76.376177,2758.910855,25.020755,3072,0" transform="translate(0 586.394)" opacity="0.3" fill="none" fill-opacity="0.6" stroke="#f0f" stroke-width="5"/></g><g transform="translate(0 0.000001)" opacity="0.36"><path d="M0,0c274.461154-18.413907,379.953537-36.645254,554.66586,0c532.015676,111.588291,362.373291,338.042819,1019.563076,399.109564c290.680097,0,599.500202-152.745877,834.125496-240.127037C2630.158984,76.376177,2758.910855,25.020755,3072,0c0,251.657761,0,587.201442,0,838.859203-235.086122-17.667201-296.452402-130.072271-560.247996-56.972287-254.469822,106.969801-524.412927,387.74774-826.347643,375.0347-506.102833-21.309592-692.860717-279.686895-1102.856278-375.0347C365.190174,731.338565,169.374261,823.204298,0,838.859203C0,587.201442,0,251.657761,0,0Z" transform="translate(0 586.394)" opacity="0.3" fill="url(#ethE06INvZX8-fill)" stroke-width="5"/><path d="M3072,838.859203c-235.086122-17.667201-296.452402-130.072271-560.247996-56.972287-254.469822,106.969801-524.412927,387.74774-826.347643,375.0347-506.102833-21.309592-692.860717-279.686895-1102.856278-375.0347C365.190174,731.338565,169.374261,823.204298,0,838.859203" transform="translate(0 586.394)" opacity="0.5" fill="none" fill-opacity="0.6" stroke="#f0f" stroke-width="5"/><path d="M0,0c274.461154-18.413907,379.953537-36.645254,554.66586,0c532.015676,111.588291,362.373291,338.042819,1019.563076,399.109564c290.680097,0,599.500202-152.745877,834.125496-240.127037C2630.158984,76.376177,2758.910855,25.020755,3072,0" transform="translate(0 586.394)" opacity="0.5" fill="none" fill-opacity="0.6" stroke="#f0f" stroke-width="5"/></g></g><g><g transform="translate(0-20)" opacity="0.25"><path d="M0,0c136.017829-57.877182,198.048309-148.85522,475.117786-126.11071s762.912083,480.420916,1134.289236,510.945066s389.182908-145.608556,691.880724-227.619272s305.241496,45.173241,770.712254-157.215084c0,145.994369,0,340.653529,0,486.647898-315.39369,36.243998-506.169625-34.979018-852.109987-19.716943-235.990424,10.411342-424.640325,165.045049-655.103464,137.564344-372.970539-44.47346-643.049308-420.45361-872.562084-447.280216s-407.333484,250.136334-692.224465,329.432815C0,340.653529,0,145.994369,0,0Z" transform="translate(0 828.289)" opacity="0.5" fill="url(#ethE06INvZX13-fill)" stroke-width="5"/><path d="M3072,486.647898c-315.39369,36.243998-506.169625-34.979018-852.109987-19.716943-235.990424,10.411342-424.640325,165.045049-655.103464,137.564344-372.970539-44.47346-643.049308-420.45361-872.562084-447.280216s-407.333484,250.136334-692.224465,329.432815" transform="translate(0 828.289)" opacity="0.5" fill="none" fill-opacity="0.6" stroke="#e5865e" stroke-width="5"/><path d="M0,0c136.017829-57.877182,198.048309-148.85522,475.117786-126.11071s762.912083,480.420916,1134.289236,510.945066s389.182908-145.608556,691.880724-227.619272s305.241496,45.173241,770.712254-157.215084" transform="translate(0 828.289)" opacity="0.5" fill="none" fill-opacity="0.6" stroke="#e5865e" stroke-width="5"/></g><g opacity="0.51"><path d="M0,0c136.017829-57.877182,198.048309-148.85522,475.117786-126.11071s762.912083,440.420916,1134.289236,470.945066s389.182908-105.608556,691.880724-187.619272s305.241496,45.173241,770.712254-157.215084c0,145.994369,0,340.653529,0,486.647898-315.39369,36.243998-506.169625-34.979018-852.109987-19.716943-235.990424,10.411342-424.640325,125.045049-655.103464,97.564344-372.970539-44.47346-643.049308-380.45361-872.562084-407.280216s-407.333484,250.136334-692.224465,329.432815C0,340.653529,0,145.994369,0,0Z" transform="translate(0 828.289)" opacity="0.5" fill="url(#ethE06INvZX17-fill)" stroke-width="5"/><path d="M3072,486.647898c-315.39369,36.243998-506.169625-34.979018-852.109987-19.716943-235.990424,10.411342-424.640325,125.045049-655.103464,97.564344-372.970539-44.47346-643.049308-380.45361-872.562084-407.280216s-407.333484,250.136334-692.224465,329.432815" transform="translate(0 828.289)" opacity="0.7" fill="none" fill-opacity="0.6" stroke="#e5865e" stroke-width="5"/><path d="M0,0c136.017829-57.877182,198.048309-148.85522,475.117786-126.11071s762.912083,440.420916,1134.289236,470.945066s389.182908-105.608556,691.880724-187.619272s305.241496,45.173241,770.712254-157.215084" transform="translate(0 828.289)" opacity="0.7" fill="none" fill-opacity="0.6" stroke="#e5865e" stroke-width="5"/></g></g><g><g transform="translate(0 40)" opacity="0.31"><path d="M0,0c154.901394-96.240678,248.94837-191.18784,430.556323-206.769614c94.71685-8.126608,593.958132,269.023513,1164.236699,356.720877C2249.878853,250.690277,2691.247707,189.94351,3072,0c0,99.858523,0,233.003219,0,332.861742-436.204246,86.267483-1350.73001,21.398468-1746.375908-137.508491s-791.291796-405.262886-940.469757-374.505883-136.205965,481.533887-385.154335,512.014374C0,233.003219,0,99.858523,0,0Z" transform="translate(0 924.53)" opacity="0.5" fill="url(#ethE06INvZX22-fill)" stroke-width="5"/><path d="M3072,332.861742c-436.204246,86.267483-1350.73001,21.398468-1746.375908-137.508491s-791.291796-405.262886-940.469757-374.505883-136.205965,481.533887-385.154335,512.014374" transform="translate(0 924.53)" opacity="0.5" fill="none" fill-opacity="0.6" stroke="#e44aa5" stroke-width="5"/><path d="M0,0c154.901394-96.240678,248.94837-191.18784,430.556323-206.769614c94.71685-8.126608,593.958132,269.023513,1164.236699,356.720877C2249.878853,250.690277,2691.247707,189.94351,3072,0" transform="translate(0 924.53)" opacity="0.5" fill="none" fill-opacity="0.6" stroke="#e44aa5" stroke-width="5"/></g><g opacity="0.59"><path d="M0,0c154.901394-96.240678,248.94837-191.18784,430.556323-206.769614c94.71685-8.126608,593.958132,389.023513,1164.236699,476.720877C2249.878853,370.690277,2691.247707,189.94351,3072,0c0,99.858523,0,233.003219,0,332.861742-436.204246,86.267483-1350.73001,141.398468-1746.375908-17.508491s-791.291796-525.262886-940.469757-494.505883-136.205965,481.533887-385.154335,512.014374C0,233.003219,0,99.858523,0,0Z" transform="translate(0 924.53)" opacity="0.5" fill="url(#ethE06INvZX26-fill)" stroke-width="5"/><path d="M3072,332.861742c-436.204246,86.267483-1350.73001,141.398468-1746.375908-17.508491s-791.291796-525.262886-940.469757-494.505883-136.205965,481.533887-385.154335,512.014374" transform="translate(0 924.53)" opacity="0.8" fill="none" fill-opacity="0.6" stroke="#e44aa5" stroke-width="5"/><path d="M0,0c154.901394-96.240678,248.94837-191.18784,430.556323-206.769614c94.71685-8.126608,593.958132,389.023513,1164.236699,476.720877C2249.878853,370.690277,2691.247707,189.94351,3072,0" transform="translate(0 924.53)" opacity="0.8" fill="none" fill-opacity="0.6" stroke="#e44aa5" stroke-width="5"/></g></g><g transform="translate(0 0.000001)"><g transform="translate(0 20)" opacity="0.21"><path d="M0,0c154.901394-96.240678,248.94837-191.18784,430.556323-206.769614c94.71685-8.126608,593.958132,429.023513,1164.236699,516.720877C2249.878853,410.690277,2691.247707,189.94351,3072,0c0,99.858523,0,23.654682,0,123.513205-515.924575,42.671724-803.101485,627.69452-893.449277,602.171526s-1381.030531-682.456872-1519.778925-664.710326-125.841567,127.797472-658.771798,62.538801C0,23.654683,0,99.858523,0,0Z" transform="translate(0 924.53)" opacity="0.5" fill="url(#ethE06INvZX31-fill)" stroke-width="5"/><path d="M3072,123.513205c-515.924575,42.671724-803.101485,627.69452-893.449277,602.171526s-1381.030531-682.456872-1519.778925-664.710326-125.841567,127.797472-658.771798,62.538801" transform="translate(0 924.53)" opacity="0.72" fill="none" fill-opacity="0.6" stroke="#e5865e" stroke-width="5"/><path d="M0,0c154.901394-96.240678,248.94837-191.18784,430.556323-206.769614c94.71685-8.126608,593.958132,429.023513,1164.236699,516.720877C2249.878853,410.690277,2691.247707,189.94351,3072,0" transform="translate(0 924.53)" opacity="0.72" fill="none" fill-opacity="0.6" stroke="#e5865e" stroke-width="5"/></g><g transform="translate(0 0.000001)" opacity="0.83"><path d="M0,0c154.901394-96.240678,248.94837-191.18784,430.556323-206.769614c94.71685-8.126608,593.958132,389.023513,1164.236699,476.720877C2249.878853,370.690277,2691.247707,189.94351,3072,0c0,99.858523,0,23.654682,0,123.513205-515.924575,42.671724-803.101485,587.69452-893.449277,562.171526s-1381.030531-642.456872-1519.778925-624.710326-125.841567,127.797472-658.771798,62.538801C0,23.654683,0,99.858523,0,0Z" transform="translate(0 924.53)" opacity="0.5" fill="url(#ethE06INvZX35-fill)" stroke-width="5"/><path d="M3072,123.513205c-515.924575,42.671724-803.101485,587.69452-893.449277,562.171526s-1381.030531-642.456872-1519.778925-624.710326-125.841567,127.797472-658.771798,62.538801" transform="translate(0 924.53)" opacity="0.8" fill="none" fill-opacity="0.6" stroke="#e5865e" stroke-width="5"/><path d="M0,0c154.901394-96.240678,248.94837-191.18784,430.556323-206.769614c94.71685-8.126608,593.958132,389.023513,1164.236699,476.720877C2249.878853,370.690277,2691.247707,189.94351,3072,0" transform="translate(0 924.53)" opacity="0.8" fill="none" fill-opacity="0.6" stroke="#e5865e" stroke-width="5"/></g></g></svg>
